<?xml version="1.0" encoding="utf-8"?>
<!-- Generator: Adobe Illustrator 24.0.2, SVG Export Plug-In . SVG Version: 6.00 Build 0)  -->
<svg version="1.1" id="Capa_1" xmlns="http://www.w3.org/2000/svg" xmlns:xlink="http://www.w3.org/1999/xlink" x="0px" y="0px"
	 viewBox="0 0 1920 1080" style="enable-background:new 0 0 1920 1080;" xml:space="preserve">
<g>
	<path d="M512.2,407.8h108.4l0.8,42.8h-6c-4.8-24.3-14.8-36.4-30-36.4h-3v118.3h19.8v6.3h-71.6v-6.3h19.7V414.2h-2.9
		c-15.2,0-25.2,12.1-30.1,36.4h-6L512.2,407.8z"/>
	<path d="M679.9,414.2v55.4h4.2c13.6,0,21.5-7.7,23.6-23.1h6.3v53.5h-6.3c-1.1-16-9-24-23.6-24h-4.2v56.5h22.4
		c19.7,0,32.6-12.2,38.7-36.6h6.7l-2.7,43H631.2v-6.3h16.6V414.2h-16.6v-6.3h109.7l1.8,36.5h-6.3c-4.1-12.4-9.2-20.5-15.3-24.4
		c-6.1-3.9-14.1-5.8-24.1-5.8H679.9z"/>
	<path d="M807,407.8l51.9,77v-56.3c0-5.9-0.6-9.8-1.8-11.6c-1.2-1.8-4.3-2.7-9.3-2.7h-6.2v-6.3h39.7v6.3h-4.6c-4.9,0-8,0.7-9.3,2.2
		c-1.2,1.5-1.9,4.5-1.9,9v115.1h-7l-77.5-115.1V520c0,5.3,0.6,8.7,1.7,10.2c1.1,1.5,4.2,2.2,9.2,2.2h7.6v6.3h-41.5v-6.3h5.2
		c5.3,0,8.4-0.9,9.5-2.6c1-1.8,1.6-6.4,1.6-14v-90.4c0-5-0.5-8.1-1.4-9.3c-0.9-1.3-3.7-1.9-8.3-1.9h-7.1v-6.3H807z"/>
	<path d="M958.9,414.2v85c0,13.3-0.9,23.4-2.8,30.1c-1.9,6.7-6.3,13.2-13.5,19.4s-16,9.4-26.7,9.4c-8.9,0-15.7-2-20.6-6.1
		c-4.9-4.1-7.3-8.6-7.3-13.7c0-3.6,1.3-7,3.8-10c2.5-3,5.9-4.5,10.2-4.5c3.7,0,6.9,1.2,9.5,3.7c2.6,2.5,3.9,5.7,3.9,9.6
		c0,3.5-1.8,7.4-5.4,11.7c0,1.9,2.1,2.8,6.4,2.8c6.9,0,10.4-4.4,10.4-13.2V414.2h-17.6v-6.3h66.2v6.3H958.9z"/>
	<path d="M1035.1,414.2v84.6c0,13.5,2.5,22.6,7.4,27.2c4.9,4.6,11.7,6.9,20.1,6.9c6.4,0,12.1-1.2,17.3-3.6c5.1-2.4,9.2-6,12.1-10.9
		c2.9-4.8,4.4-13.1,4.4-24.8v-69.1c0-4.5-0.3-7.3-0.9-8.5s-3.4-1.8-8.3-1.8h-9v-6.3h41.8v6.3h-6.2c-4.9,0-7.9,0.6-9,1.7
		c-1.1,1.1-1.7,4.2-1.7,9.3V493c0,8.6-0.8,16.1-2.5,22.6c-1.7,6.5-6.1,12.3-13.2,17.3s-18.1,7.6-33,7.6c-7.8,0-15.4-0.9-22.8-2.7
		c-7.4-1.8-13.4-5-18.1-9.5c-4.7-4.6-7.6-9.2-8.8-14c-1.2-4.8-1.8-10.4-1.8-16.7v-83.4h-17.2v-6.3h67.2v6.3H1035.1z"/>
</g>
</svg>
